<mxfile host="app.diagrams.net" modified="2024-04-10T06:57:39.860Z" agent="Mozilla/5.0 (Windows NT 10.0; Win64; x64) AppleWebKit/537.36 (KHTML, like Gecko) Chrome/123.0.0.0 Safari/537.36" etag="d0v4I0UWNgw7aev5vqOi" version="24.2.1" type="github">
  <diagram name="第 1 页" id="EZCufDCFERK9mqDCSyyt">
    <mxGraphModel dx="1434" dy="746" grid="1" gridSize="10" guides="1" tooltips="1" connect="1" arrows="1" fold="1" page="1" pageScale="1" pageWidth="827" pageHeight="1169" math="0" shadow="0">
      <root>
        <mxCell id="0" />
        <mxCell id="1" parent="0" />
        <mxCell id="OUWs4sLKqRpMYhPn36TN-1" value="" style="rounded=0;whiteSpace=wrap;html=1;opacity=50;strokeWidth=2;" vertex="1" parent="1">
          <mxGeometry x="190" y="210" width="740" height="375" as="geometry" />
        </mxCell>
        <mxCell id="OUWs4sLKqRpMYhPn36TN-7" value="" style="rounded=0;whiteSpace=wrap;html=1;direction=west;fillColor=#dae8fc;strokeColor=#6c8ebf;opacity=50;" vertex="1" parent="1">
          <mxGeometry x="160" y="300" width="800" height="200" as="geometry" />
        </mxCell>
        <mxCell id="OUWs4sLKqRpMYhPn36TN-8" value="" style="rounded=0;whiteSpace=wrap;html=1;direction=north;fillColor=#dae8fc;strokeColor=#6c8ebf;opacity=50;" vertex="1" parent="1">
          <mxGeometry x="460" width="200" height="800" as="geometry" />
        </mxCell>
        <mxCell id="OUWs4sLKqRpMYhPn36TN-2" value="cWidth" style="text;html=1;align=center;verticalAlign=middle;whiteSpace=wrap;rounded=0;" vertex="1" parent="1">
          <mxGeometry x="270" y="570" width="60" height="30" as="geometry" />
        </mxCell>
        <mxCell id="OUWs4sLKqRpMYhPn36TN-3" value="cHeight" style="text;html=1;align=center;verticalAlign=middle;whiteSpace=wrap;rounded=0;" vertex="1" parent="1">
          <mxGeometry x="160" y="530" width="60" height="30" as="geometry" />
        </mxCell>
        <mxCell id="OUWs4sLKqRpMYhPn36TN-5" value="" style="rounded=0;whiteSpace=wrap;html=1;direction=west;opacity=50;fillColor=#f8cecc;strokeColor=#b85450;" vertex="1" parent="1">
          <mxGeometry x="460" y="375" width="200" height="50" as="geometry" />
        </mxCell>
        <mxCell id="OUWs4sLKqRpMYhPn36TN-6" value="" style="rounded=0;whiteSpace=wrap;html=1;direction=north;fillColor=#f8cecc;strokeColor=#b85450;opacity=50;" vertex="1" parent="1">
          <mxGeometry x="535" y="300" width="50" height="200" as="geometry" />
        </mxCell>
        <mxCell id="OUWs4sLKqRpMYhPn36TN-9" value="a = (cHeight - targetHeight) / 2 + dwh" style="text;html=1;align=center;verticalAlign=middle;whiteSpace=wrap;rounded=0;" vertex="1" parent="1">
          <mxGeometry x="140" y="855" width="400" height="30" as="geometry" />
        </mxCell>
        <mxCell id="OUWs4sLKqRpMYhPn36TN-10" value="targetHeight" style="text;html=1;align=center;verticalAlign=middle;whiteSpace=wrap;rounded=0;" vertex="1" parent="1">
          <mxGeometry x="430" y="665" width="20" height="30" as="geometry" />
        </mxCell>
        <mxCell id="OUWs4sLKqRpMYhPn36TN-11" value="targetWidth" style="text;html=1;align=center;verticalAlign=middle;whiteSpace=wrap;rounded=0;" vertex="1" parent="1">
          <mxGeometry x="522.5" y="770" width="75" height="30" as="geometry" />
        </mxCell>
        <mxCell id="OUWs4sLKqRpMYhPn36TN-12" value="originWidth" style="text;html=1;align=center;verticalAlign=middle;whiteSpace=wrap;rounded=0;" vertex="1" parent="1">
          <mxGeometry x="462.5" y="410" width="60" height="30" as="geometry" />
        </mxCell>
        <mxCell id="OUWs4sLKqRpMYhPn36TN-13" value="originHeight" style="text;html=1;align=center;verticalAlign=middle;whiteSpace=wrap;rounded=0;" vertex="1" parent="1">
          <mxGeometry x="430" y="385" width="60" height="30" as="geometry" />
        </mxCell>
        <mxCell id="OUWs4sLKqRpMYhPn36TN-14" value="" style="shape=curlyBracket;whiteSpace=wrap;html=1;rounded=1;flipH=1;labelPosition=right;verticalLabelPosition=middle;align=left;verticalAlign=middle;" vertex="1" parent="1">
          <mxGeometry x="660" y="500" width="20" height="300" as="geometry" />
        </mxCell>
        <mxCell id="OUWs4sLKqRpMYhPn36TN-20" value="dwh" style="text;html=1;align=center;verticalAlign=middle;whiteSpace=wrap;rounded=0;" vertex="1" parent="1">
          <mxGeometry x="670" y="635" width="60" height="30" as="geometry" />
        </mxCell>
        <mxCell id="OUWs4sLKqRpMYhPn36TN-22" style="edgeStyle=orthogonalEdgeStyle;rounded=0;orthogonalLoop=1;jettySize=auto;html=1;exitX=0.1;exitY=0.5;exitDx=0;exitDy=0;exitPerimeter=0;" edge="1" parent="1" source="OUWs4sLKqRpMYhPn36TN-21">
          <mxGeometry relative="1" as="geometry">
            <mxPoint x="839.9999999999998" y="599.7931034482758" as="targetPoint" />
          </mxGeometry>
        </mxCell>
        <mxCell id="OUWs4sLKqRpMYhPn36TN-21" value="" style="shape=curlyBracket;whiteSpace=wrap;html=1;rounded=1;flipH=1;labelPosition=right;verticalLabelPosition=middle;align=left;verticalAlign=middle;" vertex="1" parent="1">
          <mxGeometry x="660" y="400" width="40" height="400" as="geometry" />
        </mxCell>
        <mxCell id="OUWs4sLKqRpMYhPn36TN-23" value="a" style="text;html=1;align=center;verticalAlign=middle;whiteSpace=wrap;rounded=0;" vertex="1" parent="1">
          <mxGeometry x="840" y="585" width="60" height="30" as="geometry" />
        </mxCell>
        <mxCell id="OUWs4sLKqRpMYhPn36TN-24" value="maxTop =&amp;nbsp;" style="text;html=1;align=center;verticalAlign=middle;whiteSpace=wrap;rounded=0;" vertex="1" parent="1">
          <mxGeometry x="145" y="930" width="390" height="35" as="geometry" />
        </mxCell>
        <mxCell id="OUWs4sLKqRpMYhPn36TN-25" value="targetOriginHeight" style="text;html=1;align=center;verticalAlign=middle;whiteSpace=wrap;rounded=0;" vertex="1" parent="1">
          <mxGeometry x="60" y="425" width="110" height="30" as="geometry" />
        </mxCell>
        <mxCell id="OUWs4sLKqRpMYhPn36TN-26" value="targetOriginWidth" style="text;html=1;align=center;verticalAlign=middle;whiteSpace=wrap;rounded=0;" vertex="1" parent="1">
          <mxGeometry x="245" y="280" width="110" height="30" as="geometry" />
        </mxCell>
        <mxCell id="OUWs4sLKqRpMYhPn36TN-27" value="targetOriginMargin&amp;nbsp;= (cHeight - targetOriginHeight) / 2" style="text;html=1;align=center;verticalAlign=middle;whiteSpace=wrap;rounded=0;" vertex="1" parent="1">
          <mxGeometry x="140" y="885" width="400" height="30" as="geometry" />
        </mxCell>
        <mxCell id="OUWs4sLKqRpMYhPn36TN-28" value="" style="shape=curlyBracket;whiteSpace=wrap;html=1;rounded=1;labelPosition=left;verticalLabelPosition=middle;align=right;verticalAlign=middle;" vertex="1" parent="1">
          <mxGeometry x="170" y="215" width="20" height="85" as="geometry" />
        </mxCell>
        <mxCell id="OUWs4sLKqRpMYhPn36TN-30" value="targetOriginMargin" style="text;html=1;align=center;verticalAlign=middle;whiteSpace=wrap;rounded=0;" vertex="1" parent="1">
          <mxGeometry x="57.5" y="242.5" width="115" height="30" as="geometry" />
        </mxCell>
        <mxCell id="OUWs4sLKqRpMYhPn36TN-34" value="" style="shape=curlyBracket;whiteSpace=wrap;html=1;rounded=1;labelPosition=left;verticalLabelPosition=middle;align=right;verticalAlign=middle;size=0.3;" vertex="1" parent="1">
          <mxGeometry x="442.5" width="20" height="210" as="geometry" />
        </mxCell>
        <mxCell id="OUWs4sLKqRpMYhPn36TN-35" value="" style="rounded=0;whiteSpace=wrap;html=1;opacity=50;strokeWidth=2;" vertex="1" parent="1">
          <mxGeometry x="210" y="1965" width="740" height="375" as="geometry" />
        </mxCell>
        <mxCell id="OUWs4sLKqRpMYhPn36TN-36" value="" style="rounded=0;whiteSpace=wrap;html=1;direction=west;fillColor=#dae8fc;strokeColor=#6c8ebf;opacity=50;" vertex="1" parent="1">
          <mxGeometry x="160" y="1840" width="800" height="200" as="geometry" />
        </mxCell>
        <mxCell id="OUWs4sLKqRpMYhPn36TN-37" value="" style="rounded=0;whiteSpace=wrap;html=1;direction=north;fillColor=#dae8fc;strokeColor=#6c8ebf;opacity=50;" vertex="1" parent="1">
          <mxGeometry x="470" y="1540" width="200" height="800" as="geometry" />
        </mxCell>
        <mxCell id="OUWs4sLKqRpMYhPn36TN-39" value="cHeight" style="text;html=1;align=center;verticalAlign=middle;whiteSpace=wrap;rounded=0;" vertex="1" parent="1">
          <mxGeometry x="170" y="2170" width="60" height="30" as="geometry" />
        </mxCell>
        <mxCell id="OUWs4sLKqRpMYhPn36TN-40" value="" style="rounded=0;whiteSpace=wrap;html=1;direction=west;opacity=50;fillColor=#f8cecc;strokeColor=#b85450;" vertex="1" parent="1">
          <mxGeometry x="460" y="1915" width="200" height="50" as="geometry" />
        </mxCell>
        <mxCell id="OUWs4sLKqRpMYhPn36TN-41" value="" style="rounded=0;whiteSpace=wrap;html=1;direction=north;fillColor=#f8cecc;strokeColor=#b85450;opacity=50;" vertex="1" parent="1">
          <mxGeometry x="540" y="1840" width="50" height="200" as="geometry" />
        </mxCell>
        <mxCell id="OUWs4sLKqRpMYhPn36TN-43" value="targetHeight" style="text;html=1;align=center;verticalAlign=middle;whiteSpace=wrap;rounded=0;" vertex="1" parent="1">
          <mxGeometry x="430" y="2090" width="80" height="30" as="geometry" />
        </mxCell>
        <mxCell id="OUWs4sLKqRpMYhPn36TN-44" value="targetWidth" style="text;html=1;align=center;verticalAlign=middle;whiteSpace=wrap;rounded=0;" vertex="1" parent="1">
          <mxGeometry x="532.5" y="2310" width="75" height="30" as="geometry" />
        </mxCell>
        <mxCell id="OUWs4sLKqRpMYhPn36TN-45" value="originWidth" style="text;html=1;align=center;verticalAlign=middle;whiteSpace=wrap;rounded=0;" vertex="1" parent="1">
          <mxGeometry x="630" y="1935" width="60" height="30" as="geometry" />
        </mxCell>
        <mxCell id="OUWs4sLKqRpMYhPn36TN-46" value="originHeight" style="text;html=1;align=center;verticalAlign=middle;whiteSpace=wrap;rounded=0;" vertex="1" parent="1">
          <mxGeometry x="560" y="1990" width="60" height="30" as="geometry" />
        </mxCell>
        <mxCell id="OUWs4sLKqRpMYhPn36TN-53" value="targetOriginHeight" style="text;html=1;align=center;verticalAlign=middle;whiteSpace=wrap;rounded=0;" vertex="1" parent="1">
          <mxGeometry x="90" y="1960" width="110" height="30" as="geometry" />
        </mxCell>
        <mxCell id="OUWs4sLKqRpMYhPn36TN-59" value="" style="shape=curlyBracket;whiteSpace=wrap;html=1;rounded=1;labelPosition=left;verticalLabelPosition=middle;align=right;verticalAlign=middle;" vertex="1" parent="1">
          <mxGeometry x="450" y="1540" width="20" height="290" as="geometry" />
        </mxCell>
        <mxCell id="OUWs4sLKqRpMYhPn36TN-60" value="dwh" style="text;strokeColor=none;fillColor=none;html=1;fontSize=24;fontStyle=1;verticalAlign=middle;align=center;" vertex="1" parent="1">
          <mxGeometry x="390" y="1660" width="40" height="40" as="geometry" />
        </mxCell>
        <mxCell id="OUWs4sLKqRpMYhPn36TN-61" value="cWidth" style="text;html=1;align=center;verticalAlign=middle;whiteSpace=wrap;rounded=0;" vertex="1" parent="1">
          <mxGeometry x="330" y="2320" width="60" height="30" as="geometry" />
        </mxCell>
        <mxCell id="OUWs4sLKqRpMYhPn36TN-62" value="" style="shape=curlyBracket;whiteSpace=wrap;html=1;rounded=1;labelPosition=left;verticalLabelPosition=middle;align=right;verticalAlign=middle;" vertex="1" parent="1">
          <mxGeometry x="370" y="1840" width="20" height="120" as="geometry" />
        </mxCell>
        <mxCell id="OUWs4sLKqRpMYhPn36TN-63" value="x" style="text;strokeColor=none;fillColor=none;html=1;fontSize=24;fontStyle=1;verticalAlign=middle;align=center;" vertex="1" parent="1">
          <mxGeometry x="275" y="1875" width="100" height="40" as="geometry" />
        </mxCell>
        <mxCell id="OUWs4sLKqRpMYhPn36TN-68" value="a = targetHeight - cHeight" style="text;html=1;align=center;verticalAlign=middle;whiteSpace=wrap;rounded=0;" vertex="1" parent="1">
          <mxGeometry x="290" y="2450" width="380" height="20" as="geometry" />
        </mxCell>
        <mxCell id="OUWs4sLKqRpMYhPn36TN-69" value="" style="shape=curlyBracket;whiteSpace=wrap;html=1;rounded=1;flipH=1;labelPosition=right;verticalLabelPosition=middle;align=left;verticalAlign=middle;" vertex="1" parent="1">
          <mxGeometry x="670" y="1540" width="20" height="420" as="geometry" />
        </mxCell>
        <mxCell id="OUWs4sLKqRpMYhPn36TN-70" value="a" style="text;html=1;align=center;verticalAlign=middle;whiteSpace=wrap;rounded=0;" vertex="1" parent="1">
          <mxGeometry x="700" y="1735" width="60" height="30" as="geometry" />
        </mxCell>
        <mxCell id="OUWs4sLKqRpMYhPn36TN-71" value="x = a - dwh" style="text;html=1;align=center;verticalAlign=middle;whiteSpace=wrap;rounded=0;" vertex="1" parent="1">
          <mxGeometry x="240" y="2490" width="400" height="50" as="geometry" />
        </mxCell>
        <mxCell id="OUWs4sLKqRpMYhPn36TN-72" value="marginTop = -1 * x" style="text;html=1;align=center;verticalAlign=middle;whiteSpace=wrap;rounded=0;" vertex="1" parent="1">
          <mxGeometry x="350" y="2560" width="200" height="10" as="geometry" />
        </mxCell>
        <mxCell id="OUWs4sLKqRpMYhPn36TN-73" value="" style="rounded=0;whiteSpace=wrap;html=1;opacity=50;strokeWidth=2;" vertex="1" parent="1">
          <mxGeometry x="1240" y="1742.5" width="740" height="607.5" as="geometry" />
        </mxCell>
        <mxCell id="OUWs4sLKqRpMYhPn36TN-74" value="" style="rounded=0;whiteSpace=wrap;html=1;direction=west;fillColor=#dae8fc;strokeColor=#6c8ebf;opacity=50;" vertex="1" parent="1">
          <mxGeometry x="1210" y="1850" width="800" height="200" as="geometry" />
        </mxCell>
        <mxCell id="OUWs4sLKqRpMYhPn36TN-75" value="" style="rounded=0;whiteSpace=wrap;html=1;direction=north;fillColor=#dae8fc;strokeColor=#6c8ebf;opacity=50;" vertex="1" parent="1">
          <mxGeometry x="1520" y="1550" width="200" height="800" as="geometry" />
        </mxCell>
        <mxCell id="OUWs4sLKqRpMYhPn36TN-76" value="cHeight" style="text;html=1;align=center;verticalAlign=middle;whiteSpace=wrap;rounded=0;" vertex="1" parent="1">
          <mxGeometry x="1200" y="2190" width="60" height="30" as="geometry" />
        </mxCell>
        <mxCell id="OUWs4sLKqRpMYhPn36TN-77" value="" style="rounded=0;whiteSpace=wrap;html=1;direction=west;opacity=50;fillColor=#f8cecc;strokeColor=#b85450;" vertex="1" parent="1">
          <mxGeometry x="1510" y="1925" width="200" height="50" as="geometry" />
        </mxCell>
        <mxCell id="OUWs4sLKqRpMYhPn36TN-78" value="" style="rounded=0;whiteSpace=wrap;html=1;direction=north;fillColor=#f8cecc;strokeColor=#b85450;opacity=50;" vertex="1" parent="1">
          <mxGeometry x="1590" y="1850" width="50" height="200" as="geometry" />
        </mxCell>
        <mxCell id="OUWs4sLKqRpMYhPn36TN-79" value="targetHeight" style="text;html=1;align=center;verticalAlign=middle;whiteSpace=wrap;rounded=0;" vertex="1" parent="1">
          <mxGeometry x="1480" y="2100" width="80" height="30" as="geometry" />
        </mxCell>
        <mxCell id="OUWs4sLKqRpMYhPn36TN-80" value="targetWidth" style="text;html=1;align=center;verticalAlign=middle;whiteSpace=wrap;rounded=0;" vertex="1" parent="1">
          <mxGeometry x="1582.5" y="2320" width="75" height="30" as="geometry" />
        </mxCell>
        <mxCell id="OUWs4sLKqRpMYhPn36TN-81" value="originWidth" style="text;html=1;align=center;verticalAlign=middle;whiteSpace=wrap;rounded=0;" vertex="1" parent="1">
          <mxGeometry x="1680" y="1945" width="60" height="30" as="geometry" />
        </mxCell>
        <mxCell id="OUWs4sLKqRpMYhPn36TN-82" value="originHeight" style="text;html=1;align=center;verticalAlign=middle;whiteSpace=wrap;rounded=0;" vertex="1" parent="1">
          <mxGeometry x="1610" y="2000" width="60" height="30" as="geometry" />
        </mxCell>
        <mxCell id="OUWs4sLKqRpMYhPn36TN-83" value="targetOriginHeight" style="text;html=1;align=center;verticalAlign=middle;whiteSpace=wrap;rounded=0;" vertex="1" parent="1">
          <mxGeometry x="1110" y="1935" width="110" height="30" as="geometry" />
        </mxCell>
        <mxCell id="OUWs4sLKqRpMYhPn36TN-84" value="" style="shape=curlyBracket;whiteSpace=wrap;html=1;rounded=1;labelPosition=left;verticalLabelPosition=middle;align=right;verticalAlign=middle;" vertex="1" parent="1">
          <mxGeometry x="1500" y="1550" width="20" height="300" as="geometry" />
        </mxCell>
        <mxCell id="OUWs4sLKqRpMYhPn36TN-85" value="dwh" style="text;strokeColor=none;fillColor=none;html=1;fontSize=24;fontStyle=1;verticalAlign=middle;align=center;" vertex="1" parent="1">
          <mxGeometry x="1440" y="1670" width="40" height="40" as="geometry" />
        </mxCell>
        <mxCell id="OUWs4sLKqRpMYhPn36TN-86" value="cWidth" style="text;html=1;align=center;verticalAlign=middle;whiteSpace=wrap;rounded=0;" vertex="1" parent="1">
          <mxGeometry x="1360" y="2320" width="60" height="30" as="geometry" />
        </mxCell>
        <mxCell id="OUWs4sLKqRpMYhPn36TN-87" value="" style="shape=curlyBracket;whiteSpace=wrap;html=1;rounded=1;labelPosition=left;verticalLabelPosition=middle;align=right;verticalAlign=middle;" vertex="1" parent="1">
          <mxGeometry x="1425" y="1742.5" width="20" height="107.5" as="geometry" />
        </mxCell>
        <mxCell id="OUWs4sLKqRpMYhPn36TN-88" value="x" style="text;strokeColor=none;fillColor=none;html=1;fontSize=24;fontStyle=1;verticalAlign=middle;align=center;" vertex="1" parent="1">
          <mxGeometry x="1375" y="1781.25" width="45" height="30" as="geometry" />
        </mxCell>
        <mxCell id="OUWs4sLKqRpMYhPn36TN-91" value="a = targetHeight - cHeight" style="text;html=1;align=center;verticalAlign=middle;whiteSpace=wrap;rounded=0;" vertex="1" parent="1">
          <mxGeometry x="1340" y="2460" width="380" height="20" as="geometry" />
        </mxCell>
        <mxCell id="OUWs4sLKqRpMYhPn36TN-94" value="x = a - dwh" style="text;html=1;align=center;verticalAlign=middle;whiteSpace=wrap;rounded=0;" vertex="1" parent="1">
          <mxGeometry x="1290" y="2500" width="400" height="50" as="geometry" />
        </mxCell>
        <mxCell id="OUWs4sLKqRpMYhPn36TN-97" value="" style="shape=curlyBracket;whiteSpace=wrap;html=1;rounded=1;flipH=1;labelPosition=right;verticalLabelPosition=middle;align=left;verticalAlign=middle;" vertex="1" parent="1">
          <mxGeometry x="1720" y="1550" width="20" height="190" as="geometry" />
        </mxCell>
        <mxCell id="OUWs4sLKqRpMYhPn36TN-98" value="a" style="text;html=1;align=center;verticalAlign=middle;whiteSpace=wrap;rounded=0;" vertex="1" parent="1">
          <mxGeometry x="1760" y="1630" width="60" height="30" as="geometry" />
        </mxCell>
        <mxCell id="OUWs4sLKqRpMYhPn36TN-99" value="" style="rounded=0;whiteSpace=wrap;html=1;opacity=50;strokeWidth=2;" vertex="1" parent="1">
          <mxGeometry x="442.5" y="3500" width="275" height="90" as="geometry" />
        </mxCell>
        <mxCell id="OUWs4sLKqRpMYhPn36TN-100" value="" style="rounded=0;whiteSpace=wrap;html=1;direction=west;fillColor=#dae8fc;strokeColor=#6c8ebf;opacity=50;" vertex="1" parent="1">
          <mxGeometry x="170" y="3090" width="800" height="200" as="geometry" />
        </mxCell>
        <mxCell id="OUWs4sLKqRpMYhPn36TN-101" value="" style="rounded=0;whiteSpace=wrap;html=1;direction=north;fillColor=#dae8fc;strokeColor=#6c8ebf;opacity=50;" vertex="1" parent="1">
          <mxGeometry x="480" y="2790" width="200" height="800" as="geometry" />
        </mxCell>
        <mxCell id="OUWs4sLKqRpMYhPn36TN-102" value="cHeight" style="text;html=1;align=center;verticalAlign=middle;whiteSpace=wrap;rounded=0;" vertex="1" parent="1">
          <mxGeometry x="394" y="3530" width="60" height="30" as="geometry" />
        </mxCell>
        <mxCell id="OUWs4sLKqRpMYhPn36TN-103" value="" style="rounded=0;whiteSpace=wrap;html=1;direction=west;opacity=50;fillColor=#f8cecc;strokeColor=#b85450;" vertex="1" parent="1">
          <mxGeometry x="480" y="3165" width="200" height="50" as="geometry" />
        </mxCell>
        <mxCell id="OUWs4sLKqRpMYhPn36TN-104" value="" style="rounded=0;whiteSpace=wrap;html=1;direction=north;fillColor=#f8cecc;strokeColor=#b85450;opacity=50;" vertex="1" parent="1">
          <mxGeometry x="555" y="3090" width="50" height="200" as="geometry" />
        </mxCell>
        <mxCell id="OUWs4sLKqRpMYhPn36TN-105" value="targetHeight" style="text;html=1;align=center;verticalAlign=middle;whiteSpace=wrap;rounded=0;" vertex="1" parent="1">
          <mxGeometry x="440" y="3340" width="80" height="30" as="geometry" />
        </mxCell>
        <mxCell id="OUWs4sLKqRpMYhPn36TN-106" value="targetWidth" style="text;html=1;align=center;verticalAlign=middle;whiteSpace=wrap;rounded=0;" vertex="1" parent="1">
          <mxGeometry x="542.5" y="3560" width="75" height="30" as="geometry" />
        </mxCell>
        <mxCell id="OUWs4sLKqRpMYhPn36TN-107" value="originWidth" style="text;html=1;align=center;verticalAlign=middle;whiteSpace=wrap;rounded=0;" vertex="1" parent="1">
          <mxGeometry x="640" y="3185" width="60" height="30" as="geometry" />
        </mxCell>
        <mxCell id="OUWs4sLKqRpMYhPn36TN-108" value="originHeight" style="text;html=1;align=center;verticalAlign=middle;whiteSpace=wrap;rounded=0;" vertex="1" parent="1">
          <mxGeometry x="570" y="3240" width="60" height="30" as="geometry" />
        </mxCell>
        <mxCell id="OUWs4sLKqRpMYhPn36TN-109" value="targetOriginHeight" style="text;html=1;align=center;verticalAlign=middle;whiteSpace=wrap;rounded=0;" vertex="1" parent="1">
          <mxGeometry x="100" y="3210" width="110" height="30" as="geometry" />
        </mxCell>
        <mxCell id="OUWs4sLKqRpMYhPn36TN-110" value="" style="shape=curlyBracket;whiteSpace=wrap;html=1;rounded=1;labelPosition=left;verticalLabelPosition=middle;align=right;verticalAlign=middle;" vertex="1" parent="1">
          <mxGeometry x="460" y="2790" width="20" height="300" as="geometry" />
        </mxCell>
        <mxCell id="OUWs4sLKqRpMYhPn36TN-111" value="dwh" style="text;strokeColor=none;fillColor=none;html=1;fontSize=24;fontStyle=1;verticalAlign=middle;align=center;" vertex="1" parent="1">
          <mxGeometry x="400" y="2910" width="40" height="40" as="geometry" />
        </mxCell>
        <mxCell id="OUWs4sLKqRpMYhPn36TN-112" value="cWidth" style="text;html=1;align=center;verticalAlign=middle;whiteSpace=wrap;rounded=0;" vertex="1" parent="1">
          <mxGeometry x="430" y="3590" width="60" height="30" as="geometry" />
        </mxCell>
        <mxCell id="OUWs4sLKqRpMYhPn36TN-113" value="" style="shape=curlyBracket;whiteSpace=wrap;html=1;rounded=1;labelPosition=left;verticalLabelPosition=middle;align=right;verticalAlign=middle;" vertex="1" parent="1">
          <mxGeometry x="450" y="3090" width="30" height="410" as="geometry" />
        </mxCell>
        <mxCell id="OUWs4sLKqRpMYhPn36TN-114" value="x" style="text;strokeColor=none;fillColor=none;html=1;fontSize=24;fontStyle=1;verticalAlign=middle;align=center;" vertex="1" parent="1">
          <mxGeometry x="394" y="3282.5" width="40" height="25" as="geometry" />
        </mxCell>
        <mxCell id="OUWs4sLKqRpMYhPn36TN-115" value="a = targetHeight - cHeight" style="text;html=1;align=center;verticalAlign=middle;whiteSpace=wrap;rounded=0;" vertex="1" parent="1">
          <mxGeometry x="300" y="3700" width="380" height="20" as="geometry" />
        </mxCell>
        <mxCell id="OUWs4sLKqRpMYhPn36TN-116" value="" style="shape=curlyBracket;whiteSpace=wrap;html=1;rounded=1;flipH=1;labelPosition=right;verticalLabelPosition=middle;align=left;verticalAlign=middle;" vertex="1" parent="1">
          <mxGeometry x="680" y="2790" width="20" height="710" as="geometry" />
        </mxCell>
        <mxCell id="OUWs4sLKqRpMYhPn36TN-117" value="a" style="text;html=1;align=center;verticalAlign=middle;whiteSpace=wrap;rounded=0;" vertex="1" parent="1">
          <mxGeometry x="700" y="3135" width="60" height="30" as="geometry" />
        </mxCell>
        <mxCell id="OUWs4sLKqRpMYhPn36TN-118" value="x = a - dwh" style="text;html=1;align=center;verticalAlign=middle;whiteSpace=wrap;rounded=0;" vertex="1" parent="1">
          <mxGeometry x="250" y="3740" width="400" height="50" as="geometry" />
        </mxCell>
        <mxCell id="OUWs4sLKqRpMYhPn36TN-119" value="marginTop = -1 * x" style="text;html=1;align=center;verticalAlign=middle;whiteSpace=wrap;rounded=0;" vertex="1" parent="1">
          <mxGeometry x="360" y="3810" width="200" height="10" as="geometry" />
        </mxCell>
      </root>
    </mxGraphModel>
  </diagram>
</mxfile>
